<svg class="icon-clock" viewBox="0 0 25 25" xmlns="http://www.w3.org/2000/svg">
   <path d="M14.5833334,6.77083334 L14.5833334,14.0625 C14.5833334,14.2144098 14.5345053,14.3391928 14.436849,14.436849 C14.3391928,14.5345053 14.2144098,14.5833334 14.0625,14.5833334 L8.85416666,14.5833334 C8.70225695,14.5833334 8.57747396,14.5345053 8.47981771,14.436849 C8.38216146,14.3391928 8.33333334,14.2144098 8.33333334,14.0625 L8.33333334,13.0208334 C8.33333334,12.8689236 8.38216146,12.7441406 8.47981771,12.6464844 C8.57747396,12.5488281 8.70225695,12.5 8.85416666,12.5 L12.5,12.5 L12.5,6.77083334 C12.5,6.61892361 12.5488281,6.49414063 12.6464844,6.39648438 C12.7441406,6.29882813 12.8689236,6.25 13.0208334,6.25 L14.0625,6.25 C14.2144098,6.25 14.3391928,6.29882813 14.436849,6.39648438 C14.5345053,6.49414063 14.5833334,6.61892361 14.5833334,6.77083334 Z M21.3541666,12.5 C21.3541666,10.8940972 20.9581164,9.41297743 20.1660156,8.05664063 C19.3739149,6.70030383 18.2996961,5.62608508 16.9433594,4.83398438 C15.5870226,4.04188368 14.1059028,3.64583334 12.5,3.64583334 C10.8940972,3.64583334 9.41297743,4.04188368 8.05664063,4.83398438 C6.70030383,5.62608508 5.62608508,6.70030383 4.83398438,8.05664063 C4.04188368,9.41297743 3.64583334,10.8940972 3.64583334,12.5 C3.64583334,14.1059028 4.04188368,15.5870226 4.83398438,16.9433594 C5.62608508,18.2996961 6.70030383,19.3739149 8.05664063,20.1660156 C9.41297743,20.9581164 10.8940972,21.3541666 12.5,21.3541666 C14.1059028,21.3541666 15.5870226,20.9581164 16.9433594,20.1660156 C18.2996961,19.3739149 19.3739149,18.2996961 20.1660156,16.9433594 C20.9581164,15.5870226 21.3541666,14.1059028 21.3541666,12.5 Z M25,12.5 C25,14.7677951 24.4411893,16.8592665 23.3235678,18.774414 C22.2059461,20.6895616 20.6895616,22.2059461 18.774414,23.3235678 C16.8592665,24.4411893 14.7677951,25 12.5,25 C10.2322049,25 8.14073351,24.4411893 6.22558594,23.3235678 C4.31043836,22.2059461 2.79405383,20.6895616 1.67643229,18.774414 C0.558810764,16.8592665 0,14.7677951 0,12.5 C0,10.2322049 0.558810764,8.14073351 1.67643229,6.22558594 C2.79405383,4.31043836 4.31043836,2.79405383 6.22558594,1.67643229 C8.14073351,0.558810764 10.2322049,0 12.5,0 C14.7677951,0 16.8592665,0.558810764 18.774414,1.67643229 C20.6895616,2.79405383 22.2059461,4.31043836 23.3235678,6.22558594 C24.4411893,8.14073351 25,10.2322049 25,12.5 Z"></path>
</svg>
