<svg viewBox="0 0 25 25" xmlns="http://www.w3.org/2000/svg">
   <path d="M23.6165365,0 L1.38346354,0 C0.618489583,0 0,0.618489583 0,1.38346354 L0,23.6165365 C0,24.3815104 0.618489583,25 1.38346354,25 L13.3463542,25 L13.3463542,15.3157552 L10.0911458,15.3157552 L10.0911458,11.5397135 L13.3463542,11.5397135 L13.3463542,8.75651042 C13.3463542,5.53385417 15.3320312,3.77604167 18.2128906,3.77604167 C19.5800781,3.77604167 20.7682292,3.87369792 21.110026,3.92252604 L21.110026,7.29166667 L19.124349,7.30794271 C17.5455729,7.30794271 17.2526042,8.04036458 17.2526042,9.13085938 L17.2526042,11.5397135 L20.9798177,11.5397135 L20.4915365,15.3157552 L17.2526042,15.3157552 L17.2526042,25 L23.6165365,25 C24.3815104,25 25,24.3815104 25,23.6165365 L25,1.38346354 C25,0.618489583 24.3815104,0 23.6165365,0 Z"></path>
</svg>
