<svg viewBox="0 0 25 25" xmlns="http://www.w3.org/2000/svg">
   <path d="M14.9251302,12.6464844 C14.9251302,12.2884115 14.8925781,11.9466146 14.827474,11.6048177 L8.93554687,11.6048177 L8.93554687,13.7532552 L12.4674479,13.7532552 C12.2070312,15.4785156 10.5794271,16.4388021 8.93554687,16.4388021 C6.77083333,16.4388021 5.04557292,14.6484375 5.04557292,12.5 C5.04557292,10.3515625 6.77083333,8.56119792 8.93554687,8.56119792 C9.84700521,8.56119792 10.7584635,8.87044271 11.4257812,9.52148438 L13.1184896,7.87760417 C11.9628906,6.80338542 10.5143229,6.25 8.93554687,6.25 C5.46875,6.25 2.68554687,9.04947917 2.68554687,12.5 C2.68554687,15.9505208 5.46875,18.75 8.93554687,18.75 C12.5325521,18.75 14.9251302,16.2109375 14.9251302,12.6464844 Z M20.5403646,13.3951823 L22.3144531,13.3951823 L22.3144531,11.6048177 L20.5403646,11.6048177 L20.5403646,9.81445312 L18.75,9.81445312 L18.75,11.6048177 L16.9596354,11.6048177 L16.9596354,13.3951823 L18.75,13.3951823 L18.75,15.1855469 L20.5403646,15.1855469 L20.5403646,13.3951823 Z M25,12.5 C25,19.4010417 19.4010417,25 12.5,25 C5.59895833,25 0,19.4010417 0,12.5 C0,5.59895833 5.59895833,0 12.5,0 C19.4010417,0 25,5.59895833 25,12.5 Z"></path>
</svg>
