<svg viewBox="0 0 25 25" xmlns="http://www.w3.org/2000/svg">
   <path d="M16.6663276,12.5 C16.6663276,10.2052649 14.7947351,8.33367239 12.5,8.33367239 C10.2052649,8.33367239 8.33367239,10.2052649 8.33367239,12.5 C8.33367239,14.7947351 10.2052649,16.6663276 12.5,16.6663276 C14.7947351,16.6663276 16.6663276,14.7947351 16.6663276,12.5 Z M18.9122386,12.5 C18.9122386,16.0478884 16.0478884,18.9122386 12.5,18.9122386 C8.95211164,18.9122386 6.08776141,16.0478884 6.08776141,12.5 C6.08776141,8.95211164 8.95211164,6.08776141 12.5,6.08776141 C16.0478884,6.08776141 18.9122386,8.95211164 18.9122386,12.5 Z M20.669908,5.82736594 C20.669908,6.65737652 20.0026446,7.32463992 19.1726341,7.32463992 C18.3426235,7.32463992 17.6753601,6.65737652 17.6753601,5.82736594 C17.6753601,4.99735536 18.3426235,4.33009195 19.1726341,4.33009195 C20.0026446,4.33009195 20.669908,4.99735536 20.669908,5.82736594 Z M12.5,2.24692815 C10.6772317,2.24692815 6.77129954,2.10045569 5.1275531,2.75144438 C4.55793799,2.97929042 4.13479535,3.25596062 3.69537798,3.69537798 C3.25596062,4.13479535 2.97929042,4.55793799 2.75144438,5.1275531 C2.10045569,6.77129954 2.24692815,10.6772317 2.24692815,12.5 C2.24692815,14.3227683 2.10045569,18.2287005 2.75144438,19.8724469 C2.97929042,20.442062 3.25596062,20.8652047 3.69537798,21.304622 C4.13479535,21.7440394 4.55793799,22.0207096 5.1275531,22.2485556 C6.77129954,22.8995443 10.6772317,22.7530719 12.5,22.7530719 C14.3227683,22.7530719 18.2287005,22.8995443 19.8724469,22.2485556 C20.442062,22.0207096 20.8652047,21.7440394 21.304622,21.304622 C21.7440394,20.8652047 22.0207096,20.442062 22.2485556,19.8724469 C22.8995443,18.2287005 22.7530719,14.3227683 22.7530719,12.5 C22.7530719,10.6772317 22.8995443,6.77129954 22.2485556,5.1275531 C22.0207096,4.55793799 21.7440394,4.13479535 21.304622,3.69537798 C20.8652047,3.25596062 20.442062,2.97929042 19.8724469,2.75144438 C18.2287005,2.10045569 14.3227683,2.24692815 12.5,2.24692815 Z M24.9989828,12.5 C24.9989828,14.22512 25.0152575,15.9339653 24.9176092,17.6590854 C24.8199609,19.6608756 24.3642689,21.4348198 22.8995443,22.8995443 C21.4348198,24.3642689 19.6608756,24.8199609 17.6590854,24.9176092 C15.9339653,25.0152575 14.22512,24.9989828 12.5,24.9989828 C10.77488,24.9989828 9.06603467,25.0152575 7.34091464,24.9176092 C5.33912442,24.8199609 3.56518024,24.3642689 2.10045569,22.8995443 C0.635731142,21.4348198 0.180039059,19.6608756 0.082390756,17.6590854 C-0.0152575474,15.9339653 0.00101716983,14.22512 0.00101716983,12.5 C0.00101716983,10.77488 -0.0152575474,9.06603467 0.082390756,7.34091464 C0.180039059,5.33912442 0.635731142,3.56518024 2.10045569,2.10045569 C3.56518024,0.635731142 5.33912442,0.180039059 7.34091464,0.082390756 C9.06603467,-0.0152575474 10.77488,0.00101716983 12.5,0.00101716983 C14.22512,0.00101716983 15.9339653,-0.0152575474 17.6590854,0.082390756 C19.6608756,0.180039059 21.4348198,0.635731142 22.8995443,2.10045569 C24.3642689,3.56518024 24.8199609,5.33912442 24.9176092,7.34091464 C25.0152575,9.06603467 24.9989828,10.77488 24.9989828,12.5 Z"></path>
</svg>
