<svg viewBox="0 0 25 25" xmlns="http://www.w3.org/2000/svg">
   <path d="M3.85742188,20.9309896 L7.6171875,20.9309896 L7.6171875,9.63541667 L3.85742188,9.63541667 L3.85742188,20.9309896 Z M7.86132813,6.15234375 C7.84505208,5.04557292 7.04752604,4.19921875 5.76171875,4.19921875 C4.47591146,4.19921875 3.62955729,5.04557292 3.62955729,6.15234375 C3.62955729,7.2265625 4.44335938,8.10546875 5.71289063,8.10546875 L5.72916667,8.10546875 C7.04752604,8.10546875 7.86132813,7.2265625 7.86132813,6.15234375 Z M13.4440104,11.2276824 L13.4440104,9.63541667 L9.68424479,9.63541667 C9.68424479,9.63541667 9.73307292,10.6933594 9.68424479,20.9309896 L13.4440104,20.9309896 L13.4440104,14.6158854 C13.4440104,14.2903646 13.4602865,13.9485677 13.5579427,13.7044271 C13.8346354,13.0371094 14.453125,12.3372396 15.4947917,12.3372396 C16.8457031,12.3372396 17.3828125,13.3626302 17.3828125,14.8925781 L17.3828125,20.9309896 L21.1425781,20.9309896 L21.1425781,14.453125 C21.1425781,10.9863281 19.2871094,9.375 16.813151,9.375 C14.8389604,9.375 13.9393407,10.449571 13.4440104,11.2276824 Z M25,4.6875 L25,20.3125 C25,22.9003906 22.9003906,25 20.3125,25 L4.6875,25 C2.09960938,25 0,22.9003906 0,20.3125 L0,4.6875 C0,2.09960938 2.09960938,0 4.6875,0 L20.3125,0 C22.9003906,0 25,2.09960938 25,4.6875 Z"></path>
</svg>
