<svg class="icon-person" viewBox="0 0 23 25" xmlns="http://www.w3.org/2000/svg">
   <path d="M22.9166667,20.7845052 C22.9166667,22.0865886 22.5206164,23.1146919 21.7285157,23.8688151 C20.9364149,24.6229383 19.8838976,25 18.5709636,25 L4.34570313,25 C3.0327691,25 1.98025174,24.6229383 1.18815104,23.8688151 C0.396050347,23.1146919 0,22.0865886 0,20.7845052 C0,20.2094184 0.0189887153,19.647895 0.0569661459,19.0999349 C0.0949435765,18.5519748 0.170898437,17.960612 0.284830729,17.3258463 C0.398763022,16.6910808 0.542534722,16.1024306 0.716145834,15.5598959 C0.889756946,15.0173611 1.12304688,14.4883898 1.41601562,13.9729818 C1.70898437,13.4575738 2.04535591,13.0181206 2.42513021,12.6546224 C2.80490452,12.2911241 3.2687717,12.000868 3.81673178,11.7838542 C4.36469185,11.5668403 4.96961806,11.4583333 5.63151042,11.4583333 C5.72916667,11.4583333 5.95703126,11.5749783 6.31510418,11.8082682 C6.67317709,12.0415582 7.07736546,12.3019748 7.52766927,12.5895182 C7.9779731,12.8770617 8.56391059,13.1374783 9.28548178,13.3707683 C10.007053,13.6040582 10.7313368,13.7207031 11.4583333,13.7207031 C12.1853299,13.7207031 12.9096138,13.6040582 13.6311849,13.3707683 C14.3527561,13.1374783 14.9386936,12.8770617 15.3889974,12.5895182 C15.8393013,12.3019748 16.2434896,12.0415582 16.6015626,11.8082682 C16.9596355,11.5749783 17.1875,11.4583333 17.2851563,11.4583333 C17.9470486,11.4583333 18.5519748,11.5668403 19.0999349,11.7838542 C19.647895,12.000868 20.1117621,12.2911241 20.4915364,12.6546224 C20.8713108,13.0181206 21.2076823,13.4575738 21.500651,13.9729818 C21.7936199,14.4883898 22.0269097,15.0173611 22.2005209,15.5598959 C22.374132,16.1024306 22.5179036,16.6910808 22.631836,17.3258463 C22.7457683,17.960612 22.8217232,18.5519748 22.8597006,19.0999349 C22.8976779,19.647895 22.9166667,20.2094184 22.9166667,20.7845052 Z M17.7083334,6.25 C17.7083334,7.97526042 17.0979818,9.4482422 15.8772787,10.6689453 C14.6565756,11.8896485 13.1835937,12.5 11.4583333,12.5 C9.73307292,12.5 8.26009115,11.8896485 7.03938803,10.6689453 C5.8186849,9.4482422 5.20833334,7.97526042 5.20833334,6.25 C5.20833334,4.52473959 5.8186849,3.05175781 7.03938803,1.83105468 C8.26009115,0.610351564 9.73307292,0 11.4583333,0 C13.1835937,0 14.6565756,0.610351564 15.8772787,1.83105468 C17.0979818,3.05175781 17.7083334,4.52473959 17.7083334,6.25 Z"></path>
</svg>
