<svg class="icon-phone" viewBox="0 0 25 25" xmlns="http://www.w3.org/2000/svg">
   <path d="M25,19.7443182 C25,20.0639205 24.9408144,20.481179 24.8224432,20.9960938 C24.704072,21.5110085 24.5797822,21.9164299 24.4495739,22.212358 C24.2009943,22.804214 23.4789299,23.4315814 22.2833807,24.0944602 C21.1706913,24.6981534 20.069839,25 18.9808239,25 C18.6612216,25 18.3504972,24.979285 18.0486506,24.9378551 C17.746804,24.8964252 17.4064867,24.8224432 17.0276989,24.7159091 C16.648911,24.609375 16.3677794,24.5235559 16.184304,24.4584517 C16.0008286,24.3933475 15.6723485,24.272017 15.1988636,24.0944602 C14.7253788,23.9169034 14.4353693,23.8103693 14.3288352,23.774858 C13.1687973,23.3605587 12.1330492,22.8693182 11.2215909,22.3011364 C9.70643939,21.3660038 8.14098011,20.090554 6.52521307,18.4747869 C4.90944602,16.8590199 3.63399621,15.2935606 2.69886364,13.7784091 C2.13068182,12.8669508 1.63944129,11.8312027 1.22514205,10.6711648 C1.18963068,10.5646307 1.08309659,10.2746212 0.905539773,9.80113636 C0.727982955,9.32765152 0.606652462,8.9991714 0.541548295,8.81569602 C0.476444129,8.63222064 0.390625,8.35108902 0.284090909,7.97230114 C0.177556818,7.59351326 0.103574811,7.25319602 0.0621448864,6.95134943 C0.0207149621,6.64950284 0,6.33877841 0,6.01917614 C0,4.93016098 0.301846591,3.82930871 0.905539773,2.71661932 C1.56841856,1.52107008 2.19578598,0.799005682 2.78764205,0.550426136 C3.08357008,0.420217803 3.48899148,0.29592803 4.00390625,0.177556818 C4.51882102,0.0591856061 4.93607955,0 5.25568182,0 C5.42140152,0 5.54569129,0.0177556818 5.62855114,0.0532670455 C5.84161932,0.124289773 6.15530303,0.574100379 6.56960227,1.40269886 C6.69981061,1.62760417 6.87736742,1.94720644 7.10227273,2.36150568 C7.32717803,2.77580492 7.53432765,3.15163352 7.72372159,3.48899148 C7.91311553,3.82634943 8.09659091,4.14299242 8.27414773,4.43892045 C8.30965909,4.48626894 8.4132339,4.63423295 8.58487216,4.8828125 C8.75651042,5.13139205 8.88375947,5.34150095 8.96661932,5.5131392 C9.04947917,5.68477746 9.09090909,5.85345644 9.09090909,6.01917614 C9.09090909,6.25591856 8.92223011,6.55184659 8.58487216,6.90696023 C8.2475142,7.26207386 7.88056345,7.5875947 7.48401989,7.88352273 C7.08747633,8.17945076 6.72052557,8.49313447 6.38316761,8.82457386 C6.04580966,9.15601326 5.87713068,9.42826705 5.87713068,9.64133523 C5.87713068,9.74786932 5.90672348,9.88103693 5.96590909,10.0408381 C6.0250947,10.2006392 6.07540246,10.3219697 6.11683239,10.4048295 C6.15826231,10.4876894 6.24112216,10.6297348 6.36541193,10.8309659 C6.4897017,11.032197 6.55776515,11.1446496 6.56960227,11.1683239 C7.46922348,12.7900095 8.49905303,14.1808712 9.65909091,15.3409091 C10.8191288,16.500947 12.2099905,17.5307765 13.8316761,18.4303977 C13.8553504,18.4422348 13.967803,18.5102983 14.1690341,18.6345881 C14.3702652,18.7588778 14.5123106,18.8417377 14.5951705,18.8831676 C14.6780303,18.9245975 14.7993608,18.9749053 14.9591619,19.0340909 C15.1189631,19.0932765 15.2521307,19.1228693 15.3586648,19.1228693 C15.571733,19.1228693 15.8439867,18.9541903 16.1754261,18.6168324 C16.5068655,18.2794744 16.8205492,17.9125237 17.1164773,17.5159801 C17.4124053,17.1194366 17.7379261,16.7524858 18.0930398,16.4151278 C18.4481534,16.0777699 18.7440814,15.9090909 18.9808239,15.9090909 C19.1465436,15.9090909 19.3152225,15.9505208 19.4868608,16.0333807 C19.6584991,16.1162405 19.868608,16.2434896 20.1171875,16.4151278 C20.365767,16.5867661 20.5137311,16.6903409 20.5610795,16.7258523 C20.8570076,16.9034091 21.1736506,17.0868845 21.5110085,17.2762784 C21.8483665,17.4656723 22.2241951,17.672822 22.6384943,17.8977273 C23.0527936,18.1226326 23.3723958,18.3001894 23.5973011,18.4303977 C24.4258996,18.844697 24.8757102,19.1583807 24.946733,19.3714489 C24.9822443,19.4543087 25,19.5785985 25,19.7443182 Z"></path>
</svg>
