<svg class="icon-search" viewBox="0 0 25 25" xmlns="http://www.w3.org/2000/svg">
   <path d="M17.3076923,10.5769231 C17.3076923,8.72395833 16.6491386,7.13892228 15.3320312,5.8218149 C14.0149239,4.50470753 12.4298878,3.84615385 10.5769231,3.84615385 C8.72395833,3.84615385 7.13892228,4.50470753 5.8218149,5.8218149 C4.50470753,7.13892228 3.84615385,8.72395833 3.84615385,10.5769231 C3.84615385,12.4298878 4.50470753,14.0149239 5.8218149,15.3320312 C7.13892228,16.6491386 8.72395833,17.3076923 10.5769231,17.3076923 C12.4298878,17.3076923 14.0149239,16.6491386 15.3320312,15.3320312 C16.6491386,14.0149239 17.3076923,12.4298878 17.3076923,10.5769231 Z M25,23.0769231 C25,23.5977564 24.8096955,24.0484776 24.4290865,24.4290865 C24.0484776,24.8096955 23.5977564,25 23.0769231,25 C22.5360577,25 22.0853365,24.8096955 21.7247596,24.4290865 L16.5715144,19.2908654 C14.7786458,20.5328526 12.7804487,21.1538462 10.5769231,21.1538462 C9.14463141,21.1538462 7.7749399,20.8759014 6.46784856,20.320012 C5.16075721,19.7641226 4.03395433,19.0129207 3.0874399,18.0664062 C2.14092548,17.1198918 1.38972356,15.9930889 0.833834135,14.6859976 C0.277944712,13.3789062 0,12.0092147 0,10.5769231 C0,9.14463141 0.277944712,7.7749399 0.833834135,6.46784856 C1.38972356,5.16075721 2.14092548,4.03395433 3.0874399,3.0874399 C4.03395433,2.14092548 5.16075721,1.38972356 6.46784856,0.833834135 C7.7749399,0.277944712 9.14463141,0 10.5769231,0 C12.0092147,0 13.3789062,0.277944712 14.6859976,0.833834135 C15.9930889,1.38972356 17.1198918,2.14092548 18.0664062,3.0874399 C19.0129207,4.03395433 19.7641226,5.16075721 20.320012,6.46784856 C20.8759014,7.7749399 21.1538462,9.14463141 21.1538462,10.5769231 C21.1538462,12.7804487 20.5328526,14.7786458 19.2908654,16.5715144 L24.4441106,21.7247596 C24.8147035,22.0953526 25,22.5460737 25,23.0769231 Z"></path>
</svg>
