<svg viewBox="0 0 31 25" xmlns="http://www.w3.org/2000/svg">
   <path d="M30.78125,2.96875 C29.6484375,3.45703125 28.4179688,3.80859375 27.1484375,3.9453125 C28.4570312,3.1640625 29.453125,1.93359375 29.921875,0.46875 C28.7109375,1.19140625 27.34375,1.71875 25.9179688,1.9921875 C24.765625,0.76171875 23.125,0 21.3085938,0 C17.8125,0 15,2.83203125 15,6.30859375 C15,6.796875 15.0585938,7.28515625 15.15625,7.75390625 C9.921875,7.48046875 5.25390625,4.98046875 2.1484375,1.15234375 C1.6015625,2.08984375 1.2890625,3.1640625 1.2890625,4.3359375 C1.2890625,6.5234375 2.40234375,8.45703125 4.1015625,9.58984375 C3.06640625,9.55078125 2.08984375,9.2578125 1.25,8.7890625 L1.25,8.8671875 C1.25,11.9335938 3.41796875,14.4726562 6.30859375,15.0585937 C5.78125,15.1953125 5.21484375,15.2734375 4.6484375,15.2734375 C4.23828125,15.2734375 3.84765625,15.234375 3.45703125,15.1757812 C4.2578125,17.6757812 6.58203125,19.4921875 9.35546875,19.5507812 C7.1875,21.25 4.47265625,22.2460938 1.5234375,22.2460938 C0.99609375,22.2460938 0.5078125,22.2265625 0,22.1679688 C2.79296875,23.9648438 6.11328125,25 9.6875,25 C21.2890625,25 27.6367188,15.390625 27.6367188,7.05078125 C27.6367188,6.77734375 27.6367188,6.50390625 27.6171875,6.23046875 C28.8476562,5.33203125 29.921875,4.21875 30.78125,2.96875 Z"></path>
</svg>
